<svg version="1.1" id="Layer_1" xmlns="http://www.w3.org/2000/svg" xmlns:xlink="http://www.w3.org/1999/xlink" x="0px" y="0px"
	 width="100%" viewBox="0 0 100 100" enable-background="new 0 0 100 100" xml:space="preserve">
<path fill="#FCFDFD" opacity="1.000000" stroke="none" 
	d="
M77.030807,49.961735 
	C79.680107,49.659649 82.329315,49.180714 84.978783,49.179218 
	C85.645203,49.178841 86.893837,50.712666 86.887833,51.534218 
	C86.837685,58.396919 86.556816,65.257935 85.774109,72.568375 
	C75.421593,77.594368 65.694298,82.293839 55.810783,86.637878 
	C53.989765,87.438248 51.253021,87.475769 49.422676,86.709686 
	C40.690369,83.054756 32.197567,78.827141 23.462124,75.180389 
	C20.245537,73.837570 19.489296,71.990669 19.524014,68.765915 
	C19.679741,54.301971 19.615086,39.835320 19.562651,25.369888 
	C19.556170,23.581623 19.146996,21.794821 18.924425,20.007339 
	C39.024849,5.576818 62.399887,5.934546 82.769272,17.380007 
	C85.601326,18.971323 87.422394,21.205170 87.058289,24.870476 
	C86.621506,29.267584 86.566399,33.702606 85.698608,38.508636 
	C82.947128,38.896069 80.843048,38.896069 78.237114,38.896069 
	C78.237114,34.911037 78.513657,31.426165 78.117455,28.019531 
	C77.926712,26.379423 76.854103,24.104849 75.523582,23.447092 
	C60.401119,15.971128 45.151623,15.996557 30.040243,23.540703 
	C29.052513,24.033813 28.708675,25.816687 28.065331,26.999620 
	C28.046032,39.106331 28.166946,51.216015 27.910051,63.317680 
	C27.844837,66.389648 29.145790,67.772675 31.531342,68.925545 
	C37.374523,71.749397 43.107601,74.821808 49.063095,77.379463 
	C50.772018,78.113373 53.367207,78.054695 55.076302,77.288849 
	C61.247299,74.523613 67.213844,71.302116 73.781265,68.484161 
	C75.472565,67.834213 77.633186,66.965935 77.644852,66.069687 
	C77.714676,60.703941 77.289803,55.331760 77.030807,49.961735 
z"/>
<path fill="#FBFBFB" opacity="1.000000" stroke="none" 
	d="
M32.934597,51.002907 
	C34.035191,50.658718 35.135784,50.314529 36.976070,49.983765 
	C39.195457,50.665104 40.675152,51.333015 42.093143,52.425407 
	C41.312855,57.199898 42.979500,59.329651 47.558865,59.041142 
	C50.689762,58.843884 53.836685,58.900967 57.375183,58.919182 
	C59.603077,58.550884 61.432236,58.107742 63.261395,57.664597 
	C63.233475,57.136982 63.205551,56.609367 63.177631,56.081753 
	C56.235165,53.032688 49.459942,49.486549 42.301910,47.078182 
	C35.514313,44.794456 31.939964,41.313892 33.527927,33.847980 
	C33.713341,32.976257 33.165203,31.948515 32.957130,30.993101 
	C44.987690,23.269423 57.379448,23.327774 69.927094,29.497725 
	C74.617729,31.804211 72.950272,36.097858 71.825600,40.231602 
	C68.772369,40.574474 66.487251,40.574474 63.816463,40.574474 
	C64.386520,35.955494 61.710529,35.047623 58.440796,34.834072 
	C54.976391,34.607807 51.495678,34.138073 48.049019,34.311096 
	C45.848316,34.421570 43.696507,35.505913 41.522774,36.153625 
	C41.627792,36.676876 41.732807,37.200123 41.837822,37.723370 
	C42.848076,37.845119 43.858326,37.966866 45.058533,38.400944 
	C50.166195,40.756466 55.083904,42.799660 60.219467,44.920208 
	C60.437328,44.997566 60.893143,45.075169 60.893143,45.075169 
	C62.408512,45.970417 63.840042,47.072781 65.453423,47.725918 
	C73.462822,50.968349 75.268646,55.457901 70.995728,63.770699 
	C60.896801,68.760529 51.275826,70.796211 40.984955,66.757492 
	C35.940952,64.777931 32.171604,62.233616 33.506348,55.851074 
	C33.822155,54.340919 33.151482,52.624466 32.934597,51.002907 
z"/>
</svg>